<svg width="298" height="245" viewBox="0 0 298 245" fill="none" xmlns="http://www.w3.org/2000/svg">
<g filter="url(#filter0_d_50_210)">
<path d="M218.5 6C218.5 6 166.375 6 149 57.9231C131.625 6 79.5 6 79.5 6C41.275 6 10 37.1538 10 75.2308C10 146.192 149 231 149 231C149 231 288 144.462 288 75.2308C288 37.1538 256.725 6 218.5 6Z" fill="#757575"/>
</g>
<path d="M183.81 110.265C185.378 111.108 186.689 112.366 187.603 113.905C188.517 115.444 189 117.205 189 119C189 120.795 188.517 122.556 187.603 124.095C186.689 125.634 185.378 126.892 183.81 127.735L142.001 150.725C135.269 154.431 127 149.613 127 141.994V96.0096C127 88.3868 135.269 83.5723 142.001 87.2715L183.81 110.265Z" fill="black"/>
<defs>
<filter id="filter0_d_50_210" x="0" y="0" width="298" height="245" filterUnits="userSpaceOnUse" color-interpolation-filters="sRGB">
<feFlood flood-opacity="0" result="BackgroundImageFix"/>
<feColorMatrix in="SourceAlpha" type="matrix" values="0 0 0 0 0 0 0 0 0 0 0 0 0 0 0 0 0 0 127 0" result="hardAlpha"/>
<feOffset dy="4"/>
<feGaussianBlur stdDeviation="5"/>
<feComposite in2="hardAlpha" operator="out"/>
<feColorMatrix type="matrix" values="0 0 0 0 0.37895 0 0 0 0 0.37895 0 0 0 0 0.37895 0 0 0 0.76 0"/>
<feBlend mode="normal" in2="BackgroundImageFix" result="effect1_dropShadow_50_210"/>
<feBlend mode="normal" in="SourceGraphic" in2="effect1_dropShadow_50_210" result="shape"/>
</filter>
</defs>
</svg>
